<svg preserveAspectRatio="none" width="100%" height="100%" overflow="visible" style="display: block;" viewBox="0 0 7.70334 8.92747" fill="none" xmlns="http://www.w3.org/2000/svg">
<path id="Subtract" d="M3.85167 0C5.97889 0 7.70334 1.72445 7.70334 3.85167C7.70334 5.85133 5.9281 7.64231 4.78804 8.58616C4.23831 9.04124 3.46503 9.04124 2.9153 8.58616C1.77524 7.64231 0 5.85133 0 3.85167C0 1.72445 1.72445 0 3.85167 0ZM3.85167 2.49226C3.10089 2.49226 2.49226 3.10089 2.49226 3.85167C2.49226 4.60245 3.10089 5.21108 3.85167 5.21108C4.60245 5.21108 5.21108 4.60245 5.21108 3.85167C5.21108 3.10089 4.60245 2.49226 3.85167 2.49226Z" fill="var(--fill-0, #BEE8FF)"/>
</svg>
