<svg preserveAspectRatio="none" width="100%" height="100%" overflow="visible" style="display: block;" viewBox="0 0 179.028 171.068" fill="none" xmlns="http://www.w3.org/2000/svg">
<g id="Subtract" filter="url(#filter0_ii_0_3387)">
<path d="M31.9621 11.9698C33.9239 4.4344 41.026 -0.594982 48.7853 0.0566765L168.028 10.0713C175.197 10.6735 180.229 17.4051 178.777 24.4512L150.872 159.891C149.371 167.179 142.429 172.02 135.07 170.909L13.6183 152.582C4.22507 151.165 -1.87185 141.923 0.521624 132.73L31.9621 11.9698ZM49.8917 10.0791C45.954 9.70559 42.3345 12.2662 41.3751 16.1036L16.7062 114.781C15.5518 119.399 18.66 123.997 23.3751 124.647L130.716 139.438C136.852 140.283 142.624 136.319 144.037 130.288L167.452 30.3536C168.558 25.6334 165.245 21.0223 160.419 20.5645L49.8917 10.0791Z" fill="url(#paint0_linear_0_3387)"/>
</g>
<defs>
<filter id="filter0_ii_0_3387" x="-0.5" y="-0.5" width="180.028" height="172.068" filterUnits="userSpaceOnUse" color-interpolation-filters="sRGB">
<feFlood flood-opacity="0" result="BackgroundImageFix"/>
<feBlend mode="normal" in="SourceGraphic" in2="BackgroundImageFix" result="shape"/>
<feColorMatrix in="SourceAlpha" type="matrix" values="0 0 0 0 0 0 0 0 0 0 0 0 0 0 0 0 0 0 127 0" result="hardAlpha"/>
<feOffset dx="0.5" dy="1"/>
<feGaussianBlur stdDeviation="0.25"/>
<feComposite in2="hardAlpha" operator="arithmetic" k2="-1" k3="1"/>
<feColorMatrix type="matrix" values="0 0 0 0 1 0 0 0 0 1 0 0 0 0 1 0 0 0 1 0"/>
<feBlend mode="normal" in2="shape" result="effect1_innerShadow_0_3387"/>
<feColorMatrix in="SourceAlpha" type="matrix" values="0 0 0 0 0 0 0 0 0 0 0 0 0 0 0 0 0 0 127 0" result="hardAlpha"/>
<feOffset dx="-0.6" dy="-0.6"/>
<feGaussianBlur stdDeviation="0.25"/>
<feComposite in2="hardAlpha" operator="arithmetic" k2="-1" k3="1"/>
<feColorMatrix type="matrix" values="0 0 0 0 0.32549 0 0 0 0 0.701961 0 0 0 0 0.972549 0 0 0 0.52 0"/>
<feBlend mode="normal" in2="effect1_innerShadow_0_3387" result="effect2_innerShadow_0_3387"/>
</filter>
<linearGradient id="paint0_linear_0_3387" x1="89.514" y1="3.58836e-05" x2="89.514" y2="171.068" gradientUnits="userSpaceOnUse">
<stop stop-color="#E7F8FF"/>
<stop offset="1" stop-color="#D1F3FF"/>
</linearGradient>
</defs>
</svg>
