<svg preserveAspectRatio="none" width="100%" height="100%" overflow="visible" style="display: block;" viewBox="0 0 9.46633 10.9706" fill="none" xmlns="http://www.w3.org/2000/svg">
<path id="Subtract" d="M4.73316 0C7.34722 0 9.46633 2.11911 9.46633 4.73316C9.46633 7.19046 7.28481 9.39133 5.88383 10.5512C5.20829 11.1104 4.25804 11.1104 3.5825 10.5512C2.18152 9.39133 0 7.19046 0 4.73316C0 2.11911 2.11911 0 4.73316 0ZM4.73316 3.06264C3.81056 3.06264 3.06264 3.81056 3.06264 4.73316C3.06264 5.65577 3.81056 6.40369 4.73316 6.40369C5.65577 6.40369 6.40369 5.65577 6.40369 4.73316C6.40369 3.81056 5.65577 3.06264 4.73316 3.06264Z" fill="var(--fill-0, #BEE8FF)"/>
</svg>
