<svg preserveAspectRatio="none" width="100%" height="100%" overflow="visible" style="display: block;" viewBox="0 0 11.6322 11.0038" fill="none" xmlns="http://www.w3.org/2000/svg">
<path id="Subtract" d="M6.97931 0C9.17269 0 10.2692 0.000176037 10.9506 0.681573C11.632 1.36297 11.6322 2.45949 11.6322 4.65287C11.6322 6.84626 11.632 7.94278 10.9506 8.62417C10.2692 9.30557 9.17258 9.30575 6.97931 9.30575H6.22447C6.02223 9.30575 5.92092 9.3059 5.82745 9.33869C5.73406 9.37149 5.65513 9.43463 5.49746 9.56077L4.13488 10.6507C3.89574 10.842 3.77607 10.9377 3.68334 10.9705C3.37952 11.0778 3.04638 10.9175 2.94042 10.6132C2.90811 10.5204 2.90805 10.3673 2.90805 10.0612V9.88736C2.90805 9.56614 2.68514 9.30575 2.36392 9.30575C1.07913 9.30567 3.10583e-07 8.26412 0 6.97931V4.65287C0 2.45949 0.00017569 1.36297 0.681573 0.681573C1.36297 0.000175898 2.45949 0 4.65287 0H6.97931ZM6.30001 4.33026C5.48819 3.11255 3.81757 3.11251 3.00574 4.33026C2.82756 4.59753 2.89978 4.95861 3.16704 5.13679C3.43431 5.31497 3.7954 5.24275 3.97357 4.97548C4.32496 4.4484 4.98077 4.44839 5.33217 4.97548C6.14399 6.1932 7.81461 6.19325 8.62645 4.97548C8.80462 4.70822 8.73241 4.34713 8.46514 4.16896C8.19788 3.99078 7.83679 4.063 7.65861 4.33026C7.30722 4.85735 6.65141 4.85736 6.30001 4.33026Z" fill="var(--fill-0, #BEE8FF)"/>
</svg>
