<svg preserveAspectRatio="none" width="100%" height="100%" overflow="visible" style="display: block;" viewBox="0 0 14.2943 13.5222" fill="none" xmlns="http://www.w3.org/2000/svg">
<path id="Subtract" d="M8.57659 0C11.272 0 12.6194 0.000216325 13.4568 0.837558C14.2941 1.6749 14.2943 3.02237 14.2943 5.71773C14.2943 8.41309 14.2941 9.76056 13.4568 10.5979C12.6194 11.4352 11.2718 11.4355 8.57659 11.4355H7.649C7.40048 11.4355 7.27598 11.4356 7.16112 11.4759C7.04636 11.5163 6.94936 11.5938 6.7556 11.7488L5.08119 13.0882C4.78732 13.3233 4.64026 13.4409 4.5263 13.4812C4.15295 13.6131 3.74358 13.4161 3.61336 13.0422C3.57366 12.928 3.57358 12.7399 3.57358 12.3638V12.1502C3.57358 11.7554 3.29966 11.4355 2.90493 11.4355C1.3261 11.4354 3.81662e-07 10.1554 0 8.57659V5.71773C0 3.02237 0.000215899 1.6749 0.837558 0.837558C1.6749 0.000216154 3.02237 0 5.71773 0H8.57659ZM7.74183 5.32129C6.74422 3.82489 4.69126 3.82484 3.69363 5.32129C3.47468 5.64972 3.56343 6.09344 3.89185 6.3124C4.22029 6.53135 4.66401 6.44261 4.88296 6.11417C5.31477 5.46646 6.12067 5.46645 6.5525 6.11417C7.5501 7.61057 9.60307 7.61064 10.6007 6.11417C10.8196 5.78574 10.7309 5.34202 10.4025 5.12306C10.074 4.90411 9.63032 4.99286 9.41136 5.32129C8.97955 5.969 8.17365 5.96902 7.74183 5.32129Z" fill="var(--fill-0, #BEE8FF)"/>
</svg>
