<svg preserveAspectRatio="none" width="100%" height="100%" overflow="visible" style="display: block;" viewBox="0 0 220 210.217" fill="none" xmlns="http://www.w3.org/2000/svg">
<g id="Subtract" filter="url(#filter0_ii_0_3383)">
<path d="M39.2776 14.7083C41.6885 5.44842 50.4154 -0.731141 59.9505 0.0696557L206.484 12.3763C215.293 13.1163 221.477 21.3876 219.693 30.0462L185.401 196.483C183.555 205.439 175.026 211.387 165.984 210.023L16.7346 187.501C5.19197 185.759 -2.30001 174.403 0.640887 163.106L39.2776 14.7083ZM61.3147 12.3851C56.4758 11.926 52.0278 15.0729 50.8489 19.7884L20.5335 141.049C19.1149 146.724 22.9345 152.375 28.7288 153.173L160.636 171.349C168.177 172.388 175.27 167.516 177.006 160.105L205.781 37.3001C207.14 31.4997 203.068 25.8325 197.137 25.2699L61.3147 12.3851Z" fill="url(#paint0_linear_0_3383)"/>
</g>
<defs>
<filter id="filter0_ii_0_3383" x="-0.61443" y="-0.61443" width="221.229" height="211.446" filterUnits="userSpaceOnUse" color-interpolation-filters="sRGB">
<feFlood flood-opacity="0" result="BackgroundImageFix"/>
<feBlend mode="normal" in="SourceGraphic" in2="BackgroundImageFix" result="shape"/>
<feColorMatrix in="SourceAlpha" type="matrix" values="0 0 0 0 0 0 0 0 0 0 0 0 0 0 0 0 0 0 127 0" result="hardAlpha"/>
<feOffset dx="0.61443" dy="1.22886"/>
<feGaussianBlur stdDeviation="0.307215"/>
<feComposite in2="hardAlpha" operator="arithmetic" k2="-1" k3="1"/>
<feColorMatrix type="matrix" values="0 0 0 0 1 0 0 0 0 1 0 0 0 0 1 0 0 0 1 0"/>
<feBlend mode="normal" in2="shape" result="effect1_innerShadow_0_3383"/>
<feColorMatrix in="SourceAlpha" type="matrix" values="0 0 0 0 0 0 0 0 0 0 0 0 0 0 0 0 0 0 127 0" result="hardAlpha"/>
<feOffset dx="-0.737316" dy="-0.737316"/>
<feGaussianBlur stdDeviation="0.307215"/>
<feComposite in2="hardAlpha" operator="arithmetic" k2="-1" k3="1"/>
<feColorMatrix type="matrix" values="0 0 0 0 0.32549 0 0 0 0 0.701961 0 0 0 0 0.972549 0 0 0 0.52 0"/>
<feBlend mode="normal" in2="effect1_innerShadow_0_3383" result="effect2_innerShadow_0_3383"/>
</filter>
<linearGradient id="paint0_linear_0_3383" x1="110" y1="-0.000656762" x2="110" y2="210.217" gradientUnits="userSpaceOnUse">
<stop stop-color="#E7F8FF"/>
<stop offset="1" stop-color="#D1F3FF"/>
</linearGradient>
</defs>
</svg>
