<svg preserveAspectRatio="none" width="100%" height="100%" overflow="visible" style="display: block;" viewBox="0 0 17.5383 17.5382" fill="none" xmlns="http://www.w3.org/2000/svg">
<g id="icon/&#233;&#128;&#154;&#231;&#148;&#168;/&#231;&#186;&#191;/&#229;&#143;&#145;&#233;&#128;&#129;">
<g id="Combo shape">
<path d="M1.91645 8.84563C-0.231788 8.01971 -0.161358 4.9564 2.02262 4.22752L14.3046 0.130406C16.2232 -0.50965 18.0479 1.31505 17.4079 3.23367L13.3103 15.5152C12.5814 17.6993 9.51798 17.7698 8.69214 15.6213L7.20214 11.7448C7.17343 11.6701 7.14132 11.5972 7.10582 11.5263L10.0708 8.56131C10.3727 8.25932 10.3726 7.76954 10.0708 7.4675C9.76877 7.16548 9.27904 7.16552 8.97699 7.4675L6.01201 10.4325C5.94105 10.3969 5.86772 10.3644 5.79294 10.3356L1.91645 8.84563Z" fill="var(--fill-0, #3DE5E0)"/>
<path d="M4.60177 14.7595C4.90381 14.4575 5.39353 14.4575 5.69557 14.7595C5.99752 15.0616 5.99759 15.5513 5.69557 15.8533L4.23716 17.3118C3.93515 17.6138 3.44541 17.6137 3.14336 17.3118C2.84131 17.0097 2.84131 16.52 3.14336 16.2179L4.60177 14.7595Z" fill="var(--fill-0, #3DE5E0)"/>
<path d="M1.68495 11.8427C1.987 11.5408 2.47674 11.5407 2.77876 11.8427C3.08058 12.1448 3.08064 12.6345 2.77876 12.9365L1.32035 14.3949C1.01837 14.6969 0.528605 14.6968 0.226543 14.3949C-0.075503 14.0929 -0.075503 13.6032 0.226543 13.3011L1.68495 11.8427Z" fill="var(--fill-0, #3DE5E0)"/>
</g>
</g>
</svg>
