<svg preserveAspectRatio="none" width="100%" height="100%" overflow="visible" style="display: block;" viewBox="0 0 52.2928 35.8262" fill="none" xmlns="http://www.w3.org/2000/svg">
<g id="88&#230;&#138;&#152;&#230;&#181;&#153;88">
<g id="Vector" filter="url(#filter0_di_0_3436)">
<path d="M32.0308 6.16039L34.3113 4.8683L34.9401 5.9781L35.8063 5.48733C36.1131 5.31352 36.351 5.31278 36.5202 5.48512C36.576 5.53099 36.6601 5.65317 36.7726 5.85168L37.432 7.01561C37.4372 7.02464 37.4352 7.0317 37.4262 7.03682L35.9983 7.84581L37.2214 10.0045C37.7876 9.59433 38.1045 9.37007 38.1722 9.33172L38.206 9.31255C38.4226 9.18986 38.6196 9.20634 38.7972 9.36199C38.8198 9.34921 39.1602 9.82381 39.8185 10.7858C39.803 10.8005 39.2939 11.1694 38.2911 11.8925L39.0771 13.2798C39.5423 14.1009 39.6699 14.9255 39.4597 15.7538C39.3044 16.2053 39.1108 16.5474 38.8791 16.78C38.8842 16.7891 38.8755 16.8 38.8529 16.8127L36.5191 16.07L36.5152 16.0633C36.5468 16.0454 36.6225 15.937 36.7422 15.738C36.8826 15.4916 36.9162 15.1984 36.8428 14.8586C36.8043 14.6539 36.6624 14.335 36.417 13.9019L36.1525 13.435C35.6849 13.7774 35.4196 13.9665 35.3564 14.0022L35.3158 14.0252C35.1399 14.1249 34.9293 14.1161 34.684 13.9988C34.6173 13.9651 34.4732 13.7845 34.2519 13.457C34.1739 13.3403 33.972 13.0524 33.6463 12.5933L35.0828 11.547L33.7178 9.13791L32.8381 9.63634C32.5764 9.7846 32.3138 9.75759 32.0502 9.55532C32.0009 9.49982 31.9558 9.43599 31.9149 9.36381L31.1979 8.09836L32.6596 7.27019L32.0308 6.16039ZM37.8444 2.94697L42.7641 0.159567C43.0528 -0.00402139 43.2668 -0.0418263 43.406 0.0461515C43.5056 0.0851048 43.6154 0.210599 43.7356 0.422634L44.4449 1.67454L39.9651 4.21273C39.7305 4.34564 39.6329 4.54691 39.6725 4.81653C39.68 4.87187 39.7182 4.96045 39.7873 5.08225L40.2665 5.92814C40.2716 5.93716 40.2787 5.93912 40.2877 5.934L44.9096 3.31531C45.2615 3.11593 45.5359 3.18993 45.7327 3.53731L46.4957 4.88396L45.1896 5.62394L48.3106 11.1323L46.1451 12.3593L43.0242 6.85086L41.3324 7.80939L42.9006 10.5771C43.6214 11.8493 43.7921 12.9028 43.4128 13.7375C43.3181 13.97 43.1915 14.1936 43.0332 14.4085L42.9673 14.4816L40.6028 13.6848L40.599 13.678C40.8381 13.3637 40.9396 13.038 40.9035 12.7009C40.873 12.4261 40.6903 11.9933 40.3555 11.4023L37.0658 5.59613C36.7872 5.10439 36.7454 4.56785 36.9405 3.98652C37.1055 3.54142 37.4068 3.1949 37.8444 2.94697Z" fill="var(--fill-0, white)"/>
</g>
<g id="Vector_2" filter="url(#filter1_di_0_3436)">
<path d="M14.869 9.88991L22.0933 4.97378C22.7759 4.50923 23.5878 4.3958 24.5288 4.63349C25.1853 4.85627 25.7101 5.25648 26.1032 5.83412L27.6423 8.09593C28.0252 8.65857 28.2495 9.21391 28.3151 9.76195C28.4276 10.4757 28.4966 10.8513 28.5221 10.8888L28.7595 11.2376C28.7748 11.2601 29.2149 11.4875 30.0798 11.9197C30.401 12.0852 30.7862 12.4981 31.2354 13.1583L32.6444 15.2288C33.16 15.9865 33.3545 16.7158 33.2278 17.4166C33.1377 18.2682 32.6726 18.9798 31.8324 19.5516L24.6418 24.4447C23.9442 24.9195 23.126 25.0317 22.1874 24.7814C21.5333 24.546 21.0505 24.1995 20.7391 23.7419L18.8784 21.0075C18.5465 20.5199 18.3729 19.9905 18.3574 19.4193C18.2814 18.582 18.2409 18.1595 18.2358 18.152C17.0362 17.4537 16.3777 17.0183 16.2603 16.8457C16.0951 16.6837 15.9054 16.4451 15.691 16.1301L14.259 14.0258C13.5086 12.923 13.459 11.8098 14.1102 10.6862C14.3385 10.3442 14.5914 10.0788 14.869 9.88991ZM18.6375 13.1536L19.6406 14.6277C19.6508 14.6427 19.8142 14.7456 20.1306 14.9364L24.8455 11.7279C24.8605 11.7177 24.8285 11.5254 24.7494 11.1512L23.7156 9.63206C23.4502 9.24196 23.0814 9.10327 22.6093 9.21599C22.5265 9.23943 22.4438 9.27923 22.3613 9.33538L18.8054 11.7552C18.5128 11.9543 18.3875 12.27 18.4293 12.7025C18.466 12.8532 18.5354 13.0035 18.6375 13.1536ZM21.9285 18.2075L22.901 19.6366C23.1461 19.9967 23.3681 20.1858 23.5671 20.2041C23.6532 20.2662 23.8458 20.2669 24.1447 20.2061C24.2299 20.1701 24.2913 20.1393 24.3288 20.1138L28.1322 17.5255C28.4173 17.3315 28.5389 17.0183 28.4971 16.5858C28.4604 16.4351 28.391 16.2848 28.2889 16.1348L27.2398 14.5931C27.1029 14.4887 26.9549 14.4083 26.7958 14.352L21.8671 17.706C21.8825 18.0028 21.903 18.17 21.9285 18.2075Z" fill="var(--fill-0, white)"/>
</g>
<g id="Vector_3" filter="url(#filter2_di_0_3436)">
<path d="M1.30711 18.4967L8.72046 13.8706C9.421 13.4334 10.2367 13.3522 11.1676 13.627C11.8147 13.8756 12.3233 14.2963 12.6931 14.8891L14.1415 17.2101C14.5018 17.7874 14.7039 18.3512 14.7477 18.9014C14.8319 19.619 14.8859 19.9971 14.91 20.0356L15.1333 20.3935C15.1477 20.4166 15.5785 20.6613 16.4255 21.1274C16.7399 21.3055 17.1085 21.7333 17.5313 22.4108L18.8571 24.5355C19.3423 25.313 19.5077 26.0494 19.3533 26.7447C19.2296 27.592 18.7366 28.2847 17.8744 28.8227L10.4957 33.4272C9.77981 33.874 8.95785 33.9537 8.02987 33.6664C7.38561 33.4053 6.91697 33.0399 6.62393 32.5703L4.87293 29.7644C4.56069 29.264 4.40813 28.7281 4.41526 28.1568C4.37257 27.3171 4.34882 26.8933 4.34402 26.8856C3.17301 26.1404 2.53226 25.6792 2.42177 25.5021C2.26319 25.3337 2.08301 25.0878 1.88125 24.7645L0.533778 22.6051C-0.172385 21.4735 -0.177853 20.3592 0.517375 19.2622C0.759034 18.9296 1.02228 18.6744 1.30711 18.4967ZM4.94339 21.9071L5.88734 23.4197C5.89695 23.4351 6.05606 23.5444 6.36467 23.7476L11.203 20.7284C11.2184 20.7188 11.194 20.5254 11.1298 20.1483L10.157 18.5895C9.90723 18.1892 9.54424 18.036 9.06806 18.1299C8.98436 18.15 8.90018 18.1865 8.8155 18.2394L5.16656 20.5164C4.86633 20.7037 4.72857 21.0143 4.75327 21.4481C4.78394 21.6001 4.84731 21.7531 4.94339 21.9071ZM8.03161 27.0873L8.94674 28.5539C9.17733 28.9234 9.39168 29.1212 9.5898 29.1473C9.67344 29.2128 9.8658 29.2211 10.1669 29.1722C10.2535 29.1396 10.316 29.1112 10.3545 29.0872L14.2575 26.6517C14.55 26.4691 14.6839 26.161 14.6592 25.7271C14.6286 25.5752 14.5652 25.4222 14.4691 25.2682L13.4819 23.6862C13.3493 23.5765 13.2046 23.4903 13.0478 23.4277L7.99013 26.5838C7.99376 26.881 8.00759 27.0489 8.03161 27.0873Z" fill="var(--fill-0, white)"/>
</g>
</g>
<defs>
<filter id="filter0_di_0_3436" x="30.7001" y="-0.497778" width="21.5927" height="19.3016" filterUnits="userSpaceOnUse" color-interpolation-filters="sRGB">
<feFlood flood-opacity="0" result="BackgroundImageFix"/>
<feColorMatrix in="SourceAlpha" type="matrix" values="0 0 0 0 0 0 0 0 0 0 0 0 0 0 0 0 0 0 127 0" result="hardAlpha"/>
<feOffset dx="2.98667" dy="0.995556"/>
<feGaussianBlur stdDeviation="0.497778"/>
<feComposite in2="hardAlpha" operator="out"/>
<feColorMatrix type="matrix" values="0 0 0 0 1 0 0 0 0 0.143478 0 0 0 0 0 0 0 0 0.52 0"/>
<feBlend mode="color-burn" in2="BackgroundImageFix" result="effect1_dropShadow_0_3436"/>
<feBlend mode="normal" in="SourceGraphic" in2="effect1_dropShadow_0_3436" result="shape"/>
<feColorMatrix in="SourceAlpha" type="matrix" values="0 0 0 0 0 0 0 0 0 0 0 0 0 0 0 0 0 0 127 0" result="hardAlpha"/>
<feOffset dx="-0.995556" dy="-0.497778"/>
<feGaussianBlur stdDeviation="0.248889"/>
<feComposite in2="hardAlpha" operator="arithmetic" k2="-1" k3="1"/>
<feColorMatrix type="matrix" values="0 0 0 0 0 0 0 0 0 0 0 0 0 0 0 0 0 0 0.15 0"/>
<feBlend mode="normal" in2="shape" result="effect2_innerShadow_0_3436"/>
</filter>
<filter id="filter1_di_0_3436" x="13.1586" y="4.01503" width="24.0889" height="22.8871" filterUnits="userSpaceOnUse" color-interpolation-filters="sRGB">
<feFlood flood-opacity="0" result="BackgroundImageFix"/>
<feColorMatrix in="SourceAlpha" type="matrix" values="0 0 0 0 0 0 0 0 0 0 0 0 0 0 0 0 0 0 127 0" result="hardAlpha"/>
<feOffset dx="2.98667" dy="0.995556"/>
<feGaussianBlur stdDeviation="0.497778"/>
<feComposite in2="hardAlpha" operator="out"/>
<feColorMatrix type="matrix" values="0 0 0 0 1 0 0 0 0 0.143478 0 0 0 0 0 0 0 0 0.52 0"/>
<feBlend mode="color-burn" in2="BackgroundImageFix" result="effect1_dropShadow_0_3436"/>
<feBlend mode="normal" in="SourceGraphic" in2="effect1_dropShadow_0_3436" result="shape"/>
<feColorMatrix in="SourceAlpha" type="matrix" values="0 0 0 0 0 0 0 0 0 0 0 0 0 0 0 0 0 0 127 0" result="hardAlpha"/>
<feOffset dx="-0.995556" dy="-0.497778"/>
<feGaussianBlur stdDeviation="0.248889"/>
<feComposite in2="hardAlpha" operator="arithmetic" k2="-1" k3="1"/>
<feColorMatrix type="matrix" values="0 0 0 0 0 0 0 0 0 0 0 0 0 0 0 0 0 0 0.15 0"/>
<feBlend mode="normal" in2="shape" result="effect2_innerShadow_0_3436"/>
</filter>
<filter id="filter2_di_0_3436" x="-0.497755" y="12.9702" width="23.8892" height="22.856" filterUnits="userSpaceOnUse" color-interpolation-filters="sRGB">
<feFlood flood-opacity="0" result="BackgroundImageFix"/>
<feColorMatrix in="SourceAlpha" type="matrix" values="0 0 0 0 0 0 0 0 0 0 0 0 0 0 0 0 0 0 127 0" result="hardAlpha"/>
<feOffset dx="2.98667" dy="0.995556"/>
<feGaussianBlur stdDeviation="0.497778"/>
<feComposite in2="hardAlpha" operator="out"/>
<feColorMatrix type="matrix" values="0 0 0 0 1 0 0 0 0 0.143478 0 0 0 0 0 0 0 0 0.52 0"/>
<feBlend mode="color-burn" in2="BackgroundImageFix" result="effect1_dropShadow_0_3436"/>
<feBlend mode="normal" in="SourceGraphic" in2="effect1_dropShadow_0_3436" result="shape"/>
<feColorMatrix in="SourceAlpha" type="matrix" values="0 0 0 0 0 0 0 0 0 0 0 0 0 0 0 0 0 0 127 0" result="hardAlpha"/>
<feOffset dx="-0.995556" dy="-0.497778"/>
<feGaussianBlur stdDeviation="0.248889"/>
<feComposite in2="hardAlpha" operator="arithmetic" k2="-1" k3="1"/>
<feColorMatrix type="matrix" values="0 0 0 0 0 0 0 0 0 0 0 0 0 0 0 0 0 0 0.15 0"/>
<feBlend mode="normal" in2="shape" result="effect2_innerShadow_0_3436"/>
</filter>
</defs>
</svg>
