<svg preserveAspectRatio="none" width="100%" height="100%" overflow="visible" style="display: block;" viewBox="0 0 129.48 46.5213" fill="none" xmlns="http://www.w3.org/2000/svg">
<path id="&#231;&#159;&#169;&#229;&#189;&#162;" d="M108.023 0.369767C119.669 0.369767 129.11 9.81082 129.11 21.4567V45.8268L128.534 45.4401L128.533 45.4391C128.532 45.4386 128.53 45.4382 128.529 45.4372C128.526 45.4351 128.522 45.4315 128.515 45.4274C128.502 45.4189 128.483 45.4064 128.457 45.3893C128.404 45.355 128.326 45.303 128.221 45.236C128.013 45.1019 127.701 44.9043 127.292 44.653C126.472 44.1501 125.26 43.4308 123.69 42.567C120.55 40.8389 115.981 38.533 110.276 36.2272C98.8639 31.6149 82.9122 27.0055 64.7399 27.0055C46.5676 27.0055 30.6159 31.6149 19.2038 36.2272C13.4986 38.533 8.92987 40.8389 5.78969 42.567C4.22018 43.4308 3.00752 44.1501 2.18813 44.653C1.77861 44.9043 1.46687 45.1019 1.25844 45.236C1.15422 45.303 1.07527 45.355 1.02309 45.3893C0.997155 45.4064 0.977314 45.4189 0.964494 45.4274C0.958266 45.4315 0.953908 45.4351 0.950822 45.4372C0.949275 45.4382 0.947632 45.4386 0.946916 45.4391L0.945939 45.4401L0.369767 45.8268V21.4567C0.369767 9.81082 9.81081 0.369767 21.4567 0.369767H108.023Z" fill="url(#paint0_linear_0_3441)" stroke="var(--stroke-0, white)" stroke-width="0.739884"/>
<defs>
<linearGradient id="paint0_linear_0_3441" x1="128.74" y1="-4.06939" x2="0.739884" y2="-4.06939" gradientUnits="userSpaceOnUse">
<stop stop-color="#FF8D58"/>
<stop offset="1" stop-color="#FF7023"/>
</linearGradient>
</defs>
</svg>
