<svg preserveAspectRatio="none" width="100%" height="100%" overflow="visible" style="display: block;" viewBox="0 0 24 24" fill="none" xmlns="http://www.w3.org/2000/svg">
<g id="icon/&#233;&#128;&#154;&#231;&#148;&#168;/&#231;&#186;&#191;/&#232;&#129;&#138;&#229;&#164;&#169;">
<g id="&#231;&#159;&#169;&#229;&#189;&#162;">
</g>
<path id="Subtract" d="M18.75 3.75C19.9926 3.75 21 4.75736 21 6V15.2725C21 16.5151 19.9926 17.5225 18.75 17.5225H11.6787C11.529 17.5225 11.3828 17.5675 11.2588 17.6514L7.60742 20.1211C7.10938 20.4578 6.4375 20.1013 6.4375 19.5V17.5225H5.25C4.05186 17.5225 3.07251 16.5862 3.00391 15.4053L3 15.2725V6C3 4.75736 4.00736 3.75 5.25 3.75H18.75ZM8.25 9.75C7.62868 9.75 7.125 10.2537 7.125 10.875C7.125 11.4963 7.62868 12 8.25 12C8.87132 12 9.375 11.4963 9.375 10.875C9.375 10.2537 8.87132 9.75 8.25 9.75ZM12 9.75C11.3787 9.75 10.875 10.2537 10.875 10.875C10.875 11.4963 11.3787 12 12 12C12.6213 12 13.125 11.4963 13.125 10.875C13.125 10.2537 12.6213 9.75 12 9.75ZM15.75 9.75C15.1287 9.75 14.625 10.2537 14.625 10.875C14.625 11.4963 15.1287 12 15.75 12C16.3713 12 16.875 11.4963 16.875 10.875C16.875 10.2537 16.3713 9.75 15.75 9.75Z" fill="var(--fill-0, #FFB507)"/>
</g>
</svg>
