<svg preserveAspectRatio="none" width="100%" height="100%" overflow="visible" style="display: block;" viewBox="0 0 129.48 57.7021" fill="none" xmlns="http://www.w3.org/2000/svg">
<path id="&#231;&#159;&#169;&#229;&#189;&#162;" d="M129.11 0.369767V56.9664L128.519 56.528L128.518 56.527C128.518 56.5265 128.516 56.5259 128.515 56.525L128.442 56.4713C128.39 56.4334 128.311 56.3772 128.208 56.3034C127.999 56.1551 127.688 55.9367 127.278 55.6588C126.459 55.103 125.245 54.3081 123.675 53.3532C120.536 51.4433 115.968 48.8954 110.264 46.3473C98.8535 41.25 82.9059 36.1569 64.7399 36.1569C46.5739 36.1569 30.6263 41.25 19.2155 46.3473C13.5113 48.8954 8.94423 51.4433 5.80434 53.3532C4.23446 54.3081 3.02121 55.103 2.2018 55.6588C1.79212 55.9367 1.48053 56.1551 1.27211 56.3034C1.16829 56.3772 1.08986 56.4334 1.03774 56.4713L0.964494 56.525C0.963288 56.5259 0.962243 56.5265 0.961564 56.527L0.960588 56.528L0.369767 56.9664V0.369767H129.11Z" fill="url(#paint0_linear_0_3408)" stroke="var(--stroke-0, white)" stroke-width="0.739884"/>
<defs>
<linearGradient id="paint0_linear_0_3408" x1="128.74" y1="7.5061" x2="0.739884" y2="7.5061" gradientUnits="userSpaceOnUse">
<stop stop-color="#FC7F38"/>
<stop offset="1" stop-color="#FF404A"/>
</linearGradient>
</defs>
</svg>
