<svg preserveAspectRatio="none" width="100%" height="100%" overflow="visible" style="display: block;" viewBox="0 0 160.85 71.9992" fill="none" xmlns="http://www.w3.org/2000/svg">
<path id="&#231;&#159;&#169;&#229;&#189;&#162;" d="M160.388 0.461965V71.0772L159.648 70.5264L159.648 70.5254C159.647 70.5248 159.645 70.5239 159.643 70.5225C159.639 70.5197 159.633 70.5155 159.625 70.5098C159.609 70.498 159.585 70.4797 159.553 70.4561C159.488 70.4088 159.39 70.3376 159.261 70.2452C159.002 70.0603 158.615 69.7889 158.106 69.4424C157.089 68.749 155.582 67.7568 153.632 66.5655C149.732 64.1827 144.058 61.0033 136.973 57.8243C122.799 51.4651 102.989 45.1124 80.4249 45.1124C57.8603 45.1124 38.0511 51.4651 23.877 57.8243C16.7913 61.0033 11.1181 64.1827 7.21782 66.5655C5.2678 67.7568 3.76103 68.749 2.74321 69.4424C2.23464 69.7889 1.84775 70.0603 1.58892 70.2452C1.45948 70.3376 1.36174 70.4088 1.29693 70.4561C1.26456 70.4797 1.24063 70.498 1.22466 70.5098C1.21689 70.5155 1.21093 70.5197 1.20708 70.5225C1.20516 70.5239 1.20309 70.5248 1.2022 70.5254L1.20122 70.5264L0.461965 71.0772V0.461965H160.388Z" fill="url(#paint0_linear_0_3425)" stroke="var(--stroke-0, white)" stroke-width="0.924856"/>
<defs>
<linearGradient id="paint0_linear_0_3425" x1="159.925" y1="9.36639" x2="0.924856" y2="9.36639" gradientUnits="userSpaceOnUse">
<stop stop-color="#FC7F38"/>
<stop offset="1" stop-color="#FF404A"/>
</linearGradient>
</defs>
</svg>
