<svg preserveAspectRatio="none" width="100%" height="100%" overflow="visible" style="display: block;" viewBox="0 0 160.85 58.0493" fill="none" xmlns="http://www.w3.org/2000/svg">
<path id="&#231;&#159;&#169;&#229;&#189;&#162;" d="M159.925 56.3096L159.666 56.6924H159.665C159.664 56.6919 159.663 56.6907 159.661 56.6895C159.657 56.6869 159.651 56.6831 159.643 56.6778C159.627 56.6671 159.603 56.6503 159.57 56.629C159.506 56.5861 159.408 56.5221 159.278 56.4385C159.019 56.2712 158.633 56.0255 158.124 55.712C157.106 55.0845 155.6 54.1864 153.649 53.1084C149.749 50.9525 144.075 48.0759 136.988 45.1993C122.813 39.445 102.998 33.6954 80.4249 33.6954C57.852 33.6954 38.0371 39.445 23.8614 45.1993C16.7747 48.0759 11.1008 50.9525 7.20025 53.1084C5.25004 54.1864 3.74352 55.0845 2.72564 55.712C2.21699 56.0255 1.83022 56.2712 1.57134 56.4385C1.44203 56.5221 1.34416 56.5861 1.27935 56.629C1.24706 56.6503 1.22307 56.6671 1.20708 56.6778C1.19909 56.6831 1.19238 56.6869 1.18853 56.6895C1.18674 56.6907 1.18547 56.6919 1.18462 56.6924H1.18364C1.18168 56.6898 1.16059 56.659 0.924856 56.3096L1.18364 56.6934L0.461965 57.1797V26.8204C0.462201 12.2634 12.2634 0.462206 26.8204 0.461965H134.029C148.586 0.462202 160.388 12.2634 160.388 26.8204V57.1797L159.666 56.6934L159.925 56.3096Z" fill="url(#paint0_linear_0_3409)" stroke="var(--stroke-0, white)" stroke-width="0.924856"/>
<defs>
<linearGradient id="paint0_linear_0_3409" x1="159.925" y1="-5.0752" x2="0.924856" y2="-5.0752" gradientUnits="userSpaceOnUse">
<stop stop-color="#FF6D74"/>
<stop offset="1" stop-color="#FF2361"/>
</linearGradient>
</defs>
</svg>
