<svg preserveAspectRatio="none" width="100%" height="100%" overflow="visible" style="display: block;" viewBox="0 0 24 24" fill="none" xmlns="http://www.w3.org/2000/svg">
<g id="icon/&#229;&#133;&#131;&#231;&#180;&#160;/&#233;&#157;&#162;/&#229;&#173;&#166;&#229;&#163;&#171;&#229;&#184;&#189;">
<g id="&#231;&#159;&#169;&#229;&#189;&#162;">
</g>
<g id="graduation-cap">
<path id="&#229;&#189;&#162;&#231;&#138;&#182;" d="M17.878 14.4945V16.8469C17.878 17.5626 17.4955 18.2238 16.8839 18.6064C13.379 20.7979 9.87296 20.7979 6.36801 18.6064C5.75642 18.2248 5.3742 17.5626 5.3742 16.8469V14.4945C5.3742 14.4161 5.45854 14.3667 5.52835 14.4038L9.35433 16.4756C10.042 16.8469 10.8337 17.0429 11.6255 17.0429C12.4174 17.0429 13.2092 16.8469 13.8969 16.4756L17.7228 14.4038C17.7937 14.3657 17.878 14.4161 17.878 14.4945ZM19.8961 7.7767L13.1541 4.13519C12.2029 3.6216 11.0524 3.6216 10.1001 4.13519L3.35806 7.7767C1.88065 8.57389 1.88065 10.6736 3.35806 11.4719L10.1001 15.1134C11.0514 15.6269 12.2018 15.6269 13.1541 15.1134L19.8961 11.4719L19.1804 11.8586V16.1251C19.1804 16.552 19.5304 16.8985 19.9618 16.8985C20.3931 16.8985 20.7432 16.552 20.7432 16.1251V10.6293C21.2683 9.6681 20.9891 8.3666 19.8961 7.7767Z" fill="var(--fill-0, #62CBFF)"/>
</g>
</g>
</svg>
