<svg preserveAspectRatio="none" width="100%" height="100%" overflow="visible" style="display: block;" viewBox="0 0 77.1135 20" fill="none" xmlns="http://www.w3.org/2000/svg">
<g id="logo">
<path id="Union" d="M10.022 0C11.4612 4.80843e-05 12.8835 0.310386 14.1919 0.90983C15.5004 1.50933 16.6642 2.38408 17.6042 3.47412C17.431 3.43396 17.2538 3.41272 17.076 3.41146C16.7657 3.41088 16.458 3.47139 16.1711 3.58968C15.8842 3.70797 15.6234 3.88166 15.4036 4.10074L15.345 4.13737C15.1244 4.35562 14.9495 4.61594 14.8299 4.90234C14.7104 5.18877 14.6484 5.49609 14.6484 5.80647C14.6484 6.11686 14.7103 6.42417 14.8299 6.71061C14.9495 6.99702 15.1244 7.25731 15.345 7.47558L15.4004 7.53417C14.9146 7.6141 14.4653 7.84304 14.1162 8.1901C13.8968 8.40939 13.7231 8.67012 13.6043 8.9567C13.4856 9.24329 13.4245 9.5506 13.4245 9.86083C13.4245 10.1711 13.4856 10.4783 13.6043 10.765C13.7231 11.0516 13.8968 11.3122 14.1162 11.5316L14.799 12.2103C14.3062 12.2873 13.8503 12.5183 13.4969 12.8703C13.0549 13.313 12.8061 13.913 12.806 14.5386C12.806 15.1643 13.0548 15.7648 13.4969 16.2077L15.6022 18.3056C13.9439 19.414 11.9929 20.0038 9.99837 20C8.00373 19.9961 6.05503 19.3985 4.40104 18.2837L6.42578 16.171C6.86784 15.7282 7.11588 15.1276 7.11588 14.5019C7.1158 13.8764 6.86771 13.2764 6.42578 12.8336C6.07321 12.4825 5.61838 12.2517 5.12695 12.1737L5.80973 11.4949C6.25199 11.0515 6.49984 10.4505 6.49984 9.82421C6.49981 9.19791 6.25203 8.59691 5.80973 8.15348C5.46249 7.80592 5.01448 7.57682 4.52962 7.49755L4.58415 7.43896C4.80393 7.22018 4.97865 6.95954 5.09766 6.67317C5.21661 6.38685 5.27832 6.0799 5.27832 5.76985C5.27832 5.45981 5.2166 5.15284 5.09766 4.86653C4.97865 4.58016 4.80393 4.31953 4.58415 4.10074C4.30527 3.82872 3.96362 3.629 3.58968 3.51969C3.21568 3.41042 2.8205 3.39503 2.43897 3.47412C3.37888 2.3841 4.54274 1.50933 5.85124 0.90983C7.15977 0.310333 8.58264 0 10.022 0ZM15.1798 13.387C15.3325 13.387 15.484 13.4171 15.625 13.4757C15.7659 13.5343 15.8942 13.6199 16.0018 13.728L18.1396 15.8406C17.6825 16.4765 17.1521 17.0567 16.5592 17.5683L14.3587 15.3678C14.2506 15.2604 14.1642 15.1325 14.1056 14.9918C14.0472 14.8513 14.017 14.7005 14.0169 14.5483C14.0169 14.3959 14.0471 14.2447 14.1056 14.104C14.1642 13.9633 14.2506 13.8354 14.3587 13.728C14.4663 13.62 14.594 13.5343 14.7347 13.4757C14.8757 13.4171 15.0272 13.387 15.1798 13.387ZM4.79004 13.3838C5.09776 13.3861 5.3923 13.5084 5.61116 13.7248C5.7212 13.8309 5.8095 13.9579 5.86995 14.0983C5.93037 14.2387 5.96208 14.3898 5.96354 14.5426C5.96391 14.6948 5.93421 14.8457 5.87565 14.9862C5.8171 15.1265 5.73087 15.2537 5.62256 15.3605L3.43994 17.561C2.84796 17.0468 2.31843 16.4642 1.8628 15.826L3.9681 13.7248C4.18613 13.507 4.48189 13.3845 4.79004 13.3838ZM35.2083 11.1979H30.6535V11.6016H35.2083V12.7018H30.6535V13.068H35.9424V14.3522H30.6274C30.5503 14.8613 30.2939 15.3261 29.904 15.6624C29.5139 15.9987 29.016 16.1844 28.501 16.1857H26.9311V14.7184H28.5189C28.6429 14.7178 28.7645 14.6837 28.8704 14.6191C28.9763 14.5546 29.0629 14.4622 29.1203 14.3522H23.8395V13.068H29.1862V12.7018H24.5361V11.6016H29.1862V11.1979H24.5361V9.95116H35.2083V11.1979ZM44.3807 6.93603H48.8411V9.13655H44.3807V13.9738H49.6215V16.1743H37.5887V13.9738H42.1801V3.79638H44.3807V6.93603ZM74.6232 10.1636H74.6053L73.7508 11.0441H77.0841V13.0607H73.138C73.203 13.4422 73.1842 13.8339 73.0826 14.2073C72.9811 14.5805 72.7995 14.9271 72.5504 15.223C72.3012 15.5189 71.9904 15.7575 71.6398 15.9212C71.2891 16.0849 70.9062 16.1702 70.5192 16.171H67.989V14.1536H70.5159C70.6187 14.1541 70.7204 14.13 70.8121 14.0836C70.9037 14.0372 70.9828 13.9697 71.0432 13.8867C71.1037 13.8036 71.1436 13.7074 71.1596 13.6059C71.1756 13.5046 71.1679 13.4008 71.136 13.3032L71.0587 13.0607H65.0585V11.0441H70.9269L71.7887 10.1636H67.5048V8.14615H74.6232V10.1636ZM8.80208 13.1087V13.8419H10.2067L9.90234 14.209H7.76041V14.9422H10.0269V14.9975C10.04 15.0335 10.044 15.072 10.0382 15.1098C10.0325 15.1476 10.0175 15.1837 9.9943 15.214C9.9721 15.245 9.94256 15.2703 9.90885 15.2881C9.87517 15.3058 9.83787 15.3157 9.7998 15.3166H8.86067V16.0498H9.80306C9.94337 16.0496 10.0823 16.0194 10.21 15.9611C10.3376 15.9028 10.4516 15.8179 10.5436 15.7121C10.6357 15.6061 10.7039 15.4812 10.7438 15.3467C10.7837 15.2122 10.7949 15.0706 10.7755 14.9316H12.242L12.2314 14.209H10.896L11.1784 13.8419V13.1087H8.80208ZM58.435 6.92138H63.3496V9.1219H58.4497C58.5181 10.386 59.0683 11.576 59.9869 12.4471C60.9058 13.3182 62.1241 13.8044 63.3903 13.8053V16.0058C62.1788 16.0058 60.9869 15.6976 59.9275 15.1098C58.8682 14.5221 57.976 13.6743 57.3348 12.6465C56.693 13.6738 55.8004 14.5214 54.7412 15.109C53.682 15.6966 52.4905 16.0051 51.2793 16.0058V13.8053C52.5454 13.8044 53.7637 13.3182 54.6826 12.4471C55.6013 11.576 56.1514 10.3861 56.2199 9.1219H51.3199V6.92138H56.2345V3.80371H58.435V6.92138ZM15.8032 8.69058C16.1113 8.69058 16.4072 8.81229 16.6252 9.02994L19.8047 12.1663C19.6192 13.0107 19.3228 13.8269 18.9241 14.5939L14.9821 10.673C14.7654 10.4546 14.6436 10.1596 14.6435 9.85188C14.6435 9.5441 14.7653 9.2484 14.9821 9.02994C15.2 8.81246 15.4953 8.69064 15.8032 8.69058ZM4.1569 8.67675C4.46517 8.67675 4.76141 8.79841 4.98047 9.01529C5.09075 9.12301 5.17896 9.25183 5.23926 9.39371C5.29953 9.53554 5.331 9.68801 5.33203 9.84211C5.33305 9.99627 5.30337 10.1495 5.24495 10.2921C5.1866 10.4346 5.10049 10.564 4.99186 10.673L1.10026 14.5573C0.702297 13.7881 0.408367 12.9693 0.227055 12.1224L3.33415 9.01529C3.55312 8.79854 3.84879 8.67683 4.1569 8.67675ZM8.25602 11.5169L8.30729 11.9458H7.76041V13.2698H8.57828V12.6977H11.4282V13.2698H12.242L12.2274 11.9458H11.6813L11.7358 11.5169H10.9294L10.8781 11.9458H10.4085V11.5169H9.59472V11.9458H9.12516L9.07389 11.5169H8.25602ZM2.91423 4.61018C3.22128 4.61027 3.51597 4.73223 3.73372 4.94873H3.75163C3.86115 5.05838 3.94779 5.18853 4.00635 5.33203C4.06491 5.4756 4.09501 5.62945 4.09343 5.7845C4.08907 6.08867 3.96607 6.37928 3.75163 6.59505L4.04362e-06 10.3434V9.99836C-0.00111523 8.75392 0.230136 7.52019 0.68197 6.36067L2.09392 4.94873C2.31175 4.73215 2.60705 4.61018 2.91423 4.61018ZM17.102 4.62158C17.4034 4.61045 17.6974 4.71547 17.9232 4.91536V4.91862L19.2952 6.29068C19.7665 7.46993 20.0078 8.72845 20.0065 9.99836V10.31L16.2874 6.59505C16.0817 6.37469 15.9686 6.08351 15.9717 5.78206C15.9748 5.48054 16.0942 5.19166 16.3045 4.97558C16.515 4.75948 16.8006 4.63273 17.102 4.62158ZM27.5252 4.76155H28.8192V3.91764H31.0205V4.76155H32.3218L32.4398 3.91438H34.6403L34.5369 4.76155H35.9415V7.74332H34.1854V9.45963H25.5371V7.73925H23.8135V4.76155H25.306L25.1994 3.91438H27.4186L27.5252 4.76155ZM68.7044 5.08382H69.9658V3.91764H72.1663V5.08382H73.4244L73.5668 3.91764H75.7861L75.6428 5.08382H77.1134V8.66373H74.9129V7.28434H67.2111V8.66373H65.0105V5.08382H66.4884L66.346 3.91764H68.5611L68.7044 5.08382ZM9.59065 3.85172V5.00732H7.75716V5.82112H9.59065C9.56439 6.28938 9.35955 6.72961 9.01855 7.05159C8.67751 7.37353 8.22614 7.55275 7.75716 7.55208V8.36995C8.20574 8.36956 8.64691 8.25521 9.0389 8.0371C9.43092 7.81895 9.76075 7.50425 9.99755 7.1232C10.2355 7.50412 10.5669 7.81818 10.9595 8.03629C11.3519 8.25426 11.7931 8.36913 12.242 8.36995V7.55208C11.7731 7.55273 11.3216 7.37351 10.9806 7.05159C10.6397 6.72961 10.4348 6.28936 10.4085 5.82112H12.242V5.00732H10.4085V3.85172H9.59065ZM27.5545 8.35937H32.1679V7.82389H27.5545V8.35937ZM26.014 6.72363L33.741 6.71956V6.22802H26.014V6.72363Z" fill="var(--fill-0, white)"/>
</g>
</svg>
