<svg preserveAspectRatio="none" width="100%" height="100%" overflow="visible" style="display: block;" viewBox="0 0 77.1136 20" fill="none" xmlns="http://www.w3.org/2000/svg">
<g id="logo">
<path id="Union" d="M10.0221 0C11.4613 4.80843e-05 12.8836 0.310386 14.1921 0.90983C15.5006 1.50933 16.6644 2.38408 17.6043 3.47412C17.4311 3.43396 17.2539 3.41272 17.0762 3.41146C16.7658 3.41088 16.4581 3.47139 16.1712 3.58968C15.8844 3.70797 15.6235 3.88166 15.4038 4.10074L15.3452 4.13737C15.1246 4.35562 14.9496 4.61594 14.8301 4.90234C14.7105 5.18877 14.6486 5.49609 14.6486 5.80647C14.6486 6.11686 14.7105 6.42417 14.8301 6.71061C14.9496 6.99702 15.1246 7.25731 15.3452 7.47558L15.4005 7.53417C14.9148 7.6141 14.4655 7.84304 14.1164 8.1901C13.897 8.40939 13.7233 8.67012 13.6045 8.9567C13.4857 9.24329 13.4247 9.5506 13.4246 9.86083C13.4246 10.1711 13.4857 10.4783 13.6045 10.765C13.7232 11.0516 13.897 11.3122 14.1164 11.5316L14.7991 12.2103C14.3064 12.2873 13.8504 12.5183 13.4971 12.8703C13.0551 13.313 12.8062 13.913 12.8061 14.5386C12.8061 15.1643 13.055 15.7648 13.4971 16.2077L15.6024 18.3056C13.9441 19.414 11.9931 20.0038 9.99853 20C8.0039 19.9961 6.05519 19.3985 4.4012 18.2837L6.42594 16.171C6.868 15.7282 7.11605 15.1276 7.11605 14.5019C7.11596 13.8764 6.86787 13.2764 6.42594 12.8336C6.07337 12.4825 5.61855 12.2517 5.12712 12.1737L5.8099 11.4949C6.25215 11.0515 6.5 10.4505 6.5 9.82421C6.49997 9.19791 6.25219 8.59691 5.8099 8.15348C5.46265 7.80592 5.01464 7.57682 4.52979 7.49755L4.58431 7.43896C4.80409 7.22018 4.97882 6.95954 5.09782 6.67317C5.21677 6.38685 5.27848 6.0799 5.27848 5.76985C5.27848 5.45981 5.21677 5.15284 5.09782 4.86653C4.97882 4.58016 4.80409 4.31953 4.58431 4.10074C4.30543 3.82872 3.96378 3.629 3.58984 3.51969C3.21584 3.41042 2.82066 3.39503 2.43913 3.47412C3.37904 2.3841 4.5429 1.50933 5.8514 0.90983C7.15994 0.310333 8.5828 0 10.0221 0ZM15.18 13.387C15.3327 13.387 15.4842 13.4171 15.6252 13.4757C15.766 13.5343 15.8943 13.6199 16.0019 13.728L18.1398 15.8406C17.6827 16.4765 17.1523 17.0567 16.5594 17.5683L14.3589 15.3678C14.2508 15.2604 14.1643 15.1325 14.1058 14.9918C14.0473 14.8513 14.0171 14.7005 14.0171 14.5483C14.0171 14.3959 14.0472 14.2447 14.1058 14.104C14.1643 13.9633 14.2508 13.8354 14.3589 13.728C14.4664 13.62 14.5942 13.5343 14.7349 13.4757C14.8758 13.4171 15.0273 13.387 15.18 13.387ZM4.7902 13.3838C5.09792 13.3861 5.39246 13.5084 5.61133 13.7248C5.72136 13.8309 5.80967 13.9579 5.87012 14.0983C5.93053 14.2387 5.96224 14.3898 5.9637 14.5426C5.96408 14.6948 5.93437 14.8457 5.87581 14.9862C5.81726 15.1265 5.73104 15.2537 5.62272 15.3605L3.44011 17.561C2.84812 17.0468 2.31859 16.4642 1.86296 15.826L3.96826 13.7248C4.18629 13.507 4.48205 13.3845 4.7902 13.3838ZM35.2085 11.1979H30.6536V11.6016H35.2085V12.7018H30.6536V13.068H35.9425V14.3522H30.6276C30.5504 14.8613 30.2941 15.3261 29.9041 15.6624C29.514 15.9987 29.0161 16.1844 28.5011 16.1857H26.9313V14.7184H28.519C28.6431 14.7178 28.7647 14.6837 28.8706 14.6191C28.9765 14.5546 29.063 14.4622 29.1204 14.3522H23.8397V13.068H29.1863V12.7018H24.5363V11.6016H29.1863V11.1979H24.5363V9.95116H35.2085V11.1979ZM44.3808 6.93603H48.8413V9.13655H44.3808V13.9738H49.6217V16.1743H37.5888V13.9738H42.1803V3.79638H44.3808V6.93603ZM74.6233 10.1636H74.6054L73.7509 11.0441H77.0843V13.0607H73.1381C73.2032 13.4422 73.1843 13.8339 73.0828 14.2073C72.9813 14.5805 72.7996 14.9271 72.5506 15.223C72.3014 15.5189 71.9905 15.7575 71.6399 15.9212C71.2892 16.0849 70.9063 16.1702 70.5193 16.171H67.9892V14.1536H70.5161C70.6188 14.1541 70.7206 14.13 70.8123 14.0836C70.9038 14.0372 70.983 13.9697 71.0434 13.8867C71.1039 13.8036 71.1437 13.7074 71.1598 13.6059C71.1758 13.5046 71.168 13.4008 71.1362 13.3032L71.0589 13.0607H65.0587V11.0441H70.927L71.7888 10.1636H67.505V8.14615H74.6233V10.1636ZM8.80224 13.1087V13.8419H10.2069L9.9025 14.209H7.76058V14.9422H10.027V14.9975C10.0401 15.0335 10.0442 15.072 10.0384 15.1098C10.0326 15.1476 10.0177 15.1837 9.99446 15.214C9.97227 15.245 9.94272 15.2703 9.90901 15.2881C9.87533 15.3058 9.83803 15.3157 9.79996 15.3166H8.86084V16.0498H9.80322C9.94353 16.0496 10.0825 16.0194 10.2101 15.9611C10.3377 15.9028 10.4517 15.8179 10.5438 15.7121C10.6358 15.6061 10.704 15.4812 10.744 15.3467C10.7839 15.2122 10.795 15.0706 10.7757 14.9316H12.2422L12.2316 14.209H10.8962L11.1785 13.8419V13.1087H8.80224ZM58.4352 6.92138H63.3497V9.1219H58.4498C58.5183 10.386 59.0684 11.576 59.9871 12.4471C60.906 13.3182 62.1243 13.8044 63.3904 13.8053V16.0058C62.179 16.0058 60.987 15.6976 59.9277 15.1098C58.8684 14.5221 57.9761 13.6743 57.3349 12.6465C56.6932 13.6738 55.8005 14.5214 54.7413 15.109C53.6822 15.6966 52.4906 16.0051 51.2794 16.0058V13.8053C52.5456 13.8044 53.7639 13.3182 54.6827 12.4471C55.6014 11.576 56.1516 10.3861 56.22 9.1219H51.3201V6.92138H56.2347V3.80371H58.4352V6.92138ZM15.8034 8.69058C16.1114 8.69058 16.4073 8.81229 16.6253 9.02994L19.8048 12.1663C19.6193 13.0107 19.323 13.8269 18.9243 14.5939L14.9823 10.673C14.7655 10.4546 14.6437 10.1596 14.6437 9.85188C14.6437 9.5441 14.7655 9.2484 14.9823 9.02994C15.2002 8.81246 15.4955 8.69064 15.8034 8.69058ZM4.15706 8.67675C4.46534 8.67675 4.76157 8.79841 4.98063 9.01529C5.09091 9.12301 5.17912 9.25183 5.23942 9.39371C5.29969 9.53554 5.33116 9.68801 5.33219 9.84211C5.33322 9.99627 5.30353 10.1495 5.24512 10.2921C5.18676 10.4346 5.10065 10.564 4.99202 10.673L1.10043 14.5573C0.702459 13.7881 0.40853 12.9693 0.227217 12.1224L3.33431 9.01529C3.55329 8.79854 3.84895 8.67683 4.15706 8.67675ZM8.25618 11.5169L8.30745 11.9458H7.76058V13.2698H8.57845V12.6977H11.4284V13.2698H12.2422L12.2275 11.9458H11.6815L11.736 11.5169H10.9295L10.8783 11.9458H10.4087V11.5169H9.59489V11.9458H9.12532L9.07405 11.5169H8.25618ZM2.91439 4.61018C3.22145 4.61027 3.51613 4.73223 3.73389 4.94873H3.75179C3.86132 5.05838 3.94795 5.18853 4.00651 5.33203C4.06507 5.4756 4.09517 5.62945 4.09359 5.7845C4.08924 6.08867 3.96623 6.37928 3.75179 6.59505L0.000166884 10.3434V9.99836C-0.00095239 8.75392 0.230299 7.52019 0.682132 6.36067L2.09408 4.94873C2.31191 4.73215 2.60722 4.61018 2.91439 4.61018ZM17.1022 4.62158C17.4036 4.61045 17.6975 4.71547 17.9233 4.91536V4.91862L19.2954 6.29068C19.7666 7.46993 20.0079 8.72845 20.0067 9.99836V10.31L16.2876 6.59505C16.0818 6.37469 15.9688 6.08351 15.9718 5.78206C15.975 5.48054 16.0944 5.19166 16.3047 4.97558C16.5151 4.75948 16.8008 4.63273 17.1022 4.62158ZM27.5254 4.76155H28.8193V3.91764H31.0206V4.76155H32.3219L32.4399 3.91438H34.6404L34.5371 4.76155H35.9417V7.74332H34.1855V9.45963H25.5373V7.73925H23.8136V4.76155H25.3061L25.1995 3.91438H27.4188L27.5254 4.76155ZM68.7045 5.08382H69.9659V3.91764H72.1665V5.08382H73.4246L73.567 3.91764H75.7862L75.643 5.08382H77.1136V8.66373H74.913V7.28434H67.2112V8.66373H65.0107V5.08382H66.4886L66.3461 3.91764H68.5613L68.7045 5.08382ZM9.59082 3.85172V5.00732H7.75732V5.82112H9.59082C9.56455 6.28938 9.35971 6.72961 9.01871 7.05159C8.67768 7.37353 8.2263 7.55275 7.75732 7.55208V8.36995C8.2059 8.36956 8.64707 8.25521 9.03906 8.0371C9.43109 7.81895 9.76091 7.50425 9.99772 7.1232C10.2356 7.50412 10.567 7.81818 10.9596 8.03629C11.3521 8.25426 11.7933 8.36913 12.2422 8.36995V7.55208C11.7732 7.55273 11.3218 7.37351 10.9808 7.05159C10.6398 6.72961 10.4349 6.28936 10.4087 5.82112H12.2422V5.00732H10.4087V3.85172H9.59082ZM27.5547 8.35937H32.1681V7.82389H27.5547V8.35937ZM26.0141 6.72363L33.7412 6.71956V6.22802H26.0141V6.72363Z" fill="var(--fill-0, white)"/>
</g>
</svg>
