<svg preserveAspectRatio="none" width="100%" height="100%" overflow="visible" style="display: block;" viewBox="0 0 8.49477 8.49477" fill="none" xmlns="http://www.w3.org/2000/svg">
<path id="Star 1" d="M3.87224 0.261186C4.00111 -0.0870616 4.49366 -0.087062 4.62252 0.261185L5.11912 1.6032C5.42297 2.42436 6.0704 3.07179 6.89156 3.37565L8.23358 3.87224C8.58183 4.00111 8.58183 4.49366 8.23358 4.62252L6.89156 5.11912C6.0704 5.42297 5.42297 6.0704 5.11912 6.89156L4.62252 8.23358C4.49366 8.58183 4.00111 8.58183 3.87224 8.23358L3.37565 6.89156C3.07179 6.0704 2.42436 5.42297 1.6032 5.11912L0.261186 4.62252C-0.0870616 4.49366 -0.087062 4.00111 0.261185 3.87224L1.6032 3.37565C2.42436 3.07179 3.07179 2.42436 3.37565 1.6032L3.87224 0.261186Z" fill="var(--fill-0, #420002)"/>
</svg>
