<svg preserveAspectRatio="none" width="100%" height="100%" overflow="visible" style="display: block;" viewBox="0 0 4.80903 10.9999" fill="none" xmlns="http://www.w3.org/2000/svg">
<path id="Vector 3181 (Stroke)" d="M3.80903 5.49995C3.80903 5.25694 3.72431 5.00538 3.4687 4.63569C3.20497 4.25428 2.80155 3.80462 2.22017 3.15864L0.12837 0.834425C-0.0563515 0.629179 -0.0397502 0.313103 0.165479 0.12837C0.370725 -0.0563515 0.686801 -0.0397502 0.871534 0.165479L2.96333 2.4897C3.52686 3.11584 3.98221 3.62033 4.29097 4.06685C4.60784 4.52513 4.80903 4.97551 4.80903 5.49995L4.80708 5.59761C4.78377 6.08081 4.58801 6.50347 4.29097 6.93306C3.98221 7.37957 3.52686 7.88407 2.96333 8.51021L0.871534 10.8344C0.686801 11.0397 0.370725 11.0563 0.165479 10.8715C-0.0397502 10.6868 -0.0563515 10.3707 0.12837 10.1655L2.22017 7.84126C2.80155 7.19528 3.20497 6.74563 3.4687 6.36421C3.72431 5.99453 3.80903 5.74297 3.80903 5.49995Z" fill="var(--fill-0, #A65757)"/>
</svg>
