<svg preserveAspectRatio="none" width="100%" height="100%" overflow="visible" style="display: block;" viewBox="0 0 20.8696 16.1739" fill="none" xmlns="http://www.w3.org/2000/svg">
<g id="Group 59">
<path id="&#232;&#183;&#175;&#229;&#190;&#132;" d="M17.2034 8.76255C17.0412 8.80758 16.869 8.72825 16.8097 8.57601C16.6184 8.08285 15.9203 6.93999 14.1618 6.95393C11.8036 6.97216 10.9378 9.60307 11.3685 11.1319C11.7701 12.5578 12.1896 13.4808 13.6673 15.5242C13.7367 15.6207 13.8575 15.6722 13.9783 15.655C16.6497 15.2809 18.1163 14.6655 19.3871 13.9536C20.6892 13.2257 21.0987 11.7183 20.7519 10.6409C20.6098 10.1037 19.6354 8.09357 17.2034 8.76255V8.76255Z" fill="var(--fill-0, #FF714E)"/>
<path id="&#229;&#189;&#162;&#231;&#138;&#182;&#231;&#187;&#147;&#229;&#144;&#136;" d="M8.33496 2.58789C10.7636 -1.33216 14.8016 0.21597 15.7178 0.773437C17.6418 1.81868 19.1094 4.38704 18.3076 6.99316C18.2797 7.0842 18.2517 7.17459 18.2227 7.26562C18.0571 7.26241 17.8832 7.268 17.7031 7.28516C17.0442 6.36003 15.8719 5.576 14.1504 5.58887C12.8528 5.59858 11.7007 6.15859 10.9043 7.16309C9.96474 8.34868 9.5985 10.0863 9.99316 11.4863C10.4171 12.9904 10.8728 14.0383 12.4053 16.1738C7.77301 15.2229 5.97061 14.4775 3.53418 13.042C0.887588 11.4831 -1.89306 7.36357 1.73633 3.87305C4.071 1.62808 6.61978 2.38183 7.54492 2.82031C7.83014 2.95525 8.17279 2.84942 8.33496 2.58789ZM4.3916 5.14062C3.73633 4.62302 3.09045 5.40814 3.01172 5.52441C2.24319 6.40675 1.5867 8.3436 3.54102 10.7783C3.68919 10.9631 3.91896 11.0706 4.16211 11.0703C4.32875 11.0703 4.49663 11.0201 4.63867 10.915C4.98304 10.6609 5.04702 10.1903 4.78418 9.8623C3.029 7.67524 4.16333 6.52475 4.2998 6.40039C4.63753 6.16547 4.94518 5.57791 4.3916 5.14062Z" fill="var(--fill-0, #FF714E)"/>
<path id="&#232;&#183;&#175;&#229;&#190;&#132;_2" d="M17.7326 8.65642C17.5637 8.67786 17.388 8.71216 17.2034 8.76255C17.0412 8.80758 16.869 8.72825 16.8097 8.57601C16.6184 8.08285 15.9203 6.93999 14.1618 6.95393C11.8036 6.97216 10.9378 9.60307 11.3685 11.1319C11.7667 12.5449 12.1829 13.4648 13.6293 15.4706C15.8185 12.7347 16.9764 10.6033 17.7326 8.65642V8.65642Z" fill="var(--fill-0, #FF714E)"/>
</g>
</svg>
