<svg preserveAspectRatio="none" width="100%" height="100%" overflow="visible" style="display: block;" viewBox="0 0 16.9554 16.5" fill="none" xmlns="http://www.w3.org/2000/svg">
<path id="Subtract" d="M8.96759 0C12.0109 5.3021e-10 13.5327 0.000122443 14.5678 0.901449C15.6029 1.8028 15.8124 3.31004 16.2311 6.32446L16.4853 8.1578C17.0246 12.0407 17.2949 13.9825 16.1989 15.2414C15.1028 16.5003 13.142 16.5 9.22182 16.5H7.73313C3.81321 16.5 1.85313 16.5 0.756975 15.2414C-0.339141 13.9825 -0.0696759 12.0407 0.469622 8.1578L0.723853 6.32446C1.14251 3.31013 1.3521 1.80282 2.3871 0.901449C3.42224 0.000141894 4.94417 1.89338e-09 7.98736 0H8.96759ZM11.6863 3.20833C11.18 3.20833 10.7696 3.61874 10.7696 4.125V4.58333C10.7696 5.84887 9.74341 6.87481 8.47792 6.875C7.21227 6.875 6.18626 5.84899 6.18626 4.58333V4.125C6.18626 3.61886 5.77569 3.20852 5.26959 3.20833C4.76333 3.20833 4.35292 3.61874 4.35292 4.125V4.58333C4.35292 6.86151 6.19975 8.70833 8.47792 8.70833C10.7559 8.70814 12.6029 6.86139 12.6029 4.58333V4.125C12.6029 3.61886 12.1924 3.20852 11.6863 3.20833Z" fill="var(--fill-0, #62CBFF)"/>
</svg>
