<svg preserveAspectRatio="none" width="100%" height="100%" overflow="visible" style="display: block;" viewBox="0 0 17.8787 12.8027" fill="none" xmlns="http://www.w3.org/2000/svg">
<path id="Subtract" d="M4.04538 1.4156C7.03488 -0.47188 10.8438 -0.471854 13.8333 1.4156C14.3439 1.738 14.8689 2.17595 15.9191 3.0511C16.502 3.53684 16.7937 3.77957 16.9924 4.01073C18.1742 5.38526 18.1742 7.41737 16.9924 8.7919C16.7937 9.02306 16.502 9.26581 15.9191 9.75154L15.2217 10.3307C14.6071 10.8381 14.2163 11.1452 13.8333 11.387C10.8438 13.2745 7.0349 13.2745 4.04538 11.387C3.53476 11.0646 3.00976 10.6267 1.95961 9.75154C1.37677 9.26584 1.08503 9.02306 0.886285 8.7919C-0.295418 7.41738 -0.295438 5.38524 0.886285 4.01073C1.08503 3.77958 1.37675 3.53681 1.95961 3.0511C3.00978 2.17595 3.53475 1.738 4.04538 1.4156ZM8.93935 3.65177C7.42058 3.65179 6.18935 4.883 6.18935 6.40177C6.18957 7.92034 7.42072 9.15174 8.93935 9.15177C10.458 9.15177 11.6891 7.92036 11.6893 6.40177C11.6893 4.88298 10.4581 3.65177 8.93935 3.65177Z" fill="var(--fill-0, #3DE5DF)"/>
</svg>
