<svg preserveAspectRatio="none" width="100%" height="100%" overflow="visible" style="display: block;" viewBox="0 0 13.5725 13.5725" fill="none" xmlns="http://www.w3.org/2000/svg">
<path id="Union" d="M6.79895 0C7.77532 3.26312e-05 8.7402 0.210636 9.62785 0.617434C10.5156 1.02427 11.3051 1.6179 11.9427 2.35763C11.8253 2.33037 11.705 2.31596 11.5844 2.3151C11.3739 2.31471 11.1652 2.35577 10.9705 2.43605C10.7759 2.51632 10.599 2.63419 10.4499 2.78287L10.4102 2.80772C10.2605 2.95584 10.1418 3.1325 10.0607 3.32685C9.97958 3.52123 9.93757 3.72979 9.93757 3.94042C9.93757 4.15106 9.97957 4.3596 10.0607 4.55399C10.1418 4.74836 10.2605 4.925 10.4102 5.07312L10.4477 5.11288C10.1182 5.16712 9.81336 5.32249 9.5765 5.55801C9.42765 5.70683 9.30982 5.88377 9.22924 6.07824C9.14867 6.27274 9.10724 6.48128 9.10723 6.69181C9.10723 6.90236 9.14868 7.11087 9.22924 7.30538C9.3098 7.49987 9.42766 7.67678 9.5765 7.82561L10.0397 8.2862C9.70541 8.33849 9.3961 8.49525 9.15636 8.73409C8.8565 9.03455 8.68771 9.44169 8.68764 9.86624C8.68764 10.2909 8.85644 10.6984 9.15636 10.9989L10.5846 12.4227C9.45962 13.1748 8.13606 13.5751 6.78294 13.5725C5.42977 13.5698 4.10776 13.1643 2.98569 12.4078L4.35928 10.9741C4.65918 10.6736 4.82745 10.266 4.82745 9.84139C4.82739 9.41687 4.65909 9.0097 4.35928 8.70924C4.1201 8.47096 3.81154 8.31431 3.47815 8.26135L3.94135 7.80076C4.24138 7.49983 4.40952 7.09198 4.40952 6.66696C4.4095 6.24194 4.24141 5.83408 3.94135 5.53316C3.70578 5.2973 3.40185 5.14182 3.07292 5.08803L3.10991 5.04827C3.25901 4.8998 3.37754 4.72292 3.45828 4.52858C3.53898 4.33428 3.58084 4.12597 3.58084 3.91557C3.58084 3.70517 3.53897 3.49685 3.45828 3.30255C3.37754 3.10821 3.25901 2.93134 3.10991 2.78287C2.92071 2.59826 2.68894 2.46273 2.43526 2.38855C2.18153 2.3144 1.91344 2.30395 1.65461 2.35763C2.29225 1.61791 3.08182 1.02427 3.96951 0.617434C4.85723 0.2106 5.8225 0 6.79895 0ZM10.2981 9.08478C10.4017 9.08478 10.5044 9.10521 10.6001 9.14498C10.6956 9.18475 10.7827 9.24278 10.8557 9.31618L12.306 10.7499C11.9959 11.1814 11.6361 11.5751 11.2339 11.9223L9.74102 10.429C9.66768 10.3561 9.60905 10.2693 9.56933 10.1739C9.52967 10.0785 9.50917 9.97616 9.50915 9.87287C9.50915 9.76946 9.5296 9.6668 9.56933 9.57133C9.60905 9.47588 9.66769 9.38904 9.74102 9.31618C9.81398 9.24291 9.90064 9.1847 9.99609 9.14498C10.0917 9.10521 10.1945 9.08478 10.2981 9.08478ZM3.24959 9.08257C3.45834 9.08415 3.65816 9.16717 3.80664 9.31397C3.88129 9.386 3.9412 9.47217 3.98221 9.56746C4.02319 9.66273 4.0447 9.76529 4.0457 9.869C4.04595 9.97225 4.0258 10.0747 3.98607 10.17C3.94635 10.2652 3.88785 10.3516 3.81437 10.424L2.33367 11.9174C1.93207 11.5684 1.57283 11.173 1.26373 10.7399L2.69198 9.31397C2.83989 9.16619 3.04054 9.08305 3.24959 9.08257ZM5.97137 8.89591V9.3935H6.92428L6.7178 9.64257H5.2647V10.1402H6.80227V10.1777C6.81117 10.2021 6.81391 10.2283 6.80999 10.2539C6.80607 10.2796 6.79595 10.304 6.78018 10.3246C6.76512 10.3457 6.74508 10.3628 6.72221 10.3749C6.69936 10.3869 6.67406 10.3936 6.64823 10.3942H6.01112V10.8918H6.65044C6.74563 10.8916 6.83989 10.8711 6.92648 10.8316C7.01305 10.792 7.0904 10.7344 7.15284 10.6626C7.2153 10.5907 7.26156 10.506 7.28865 10.4146C7.31573 10.3234 7.3233 10.2273 7.31019 10.133H8.30505L8.29787 9.64257H7.39189L7.58347 9.3935V8.89591H5.97137ZM10.721 5.89765C10.93 5.89765 11.1307 5.98024 11.2786 6.12795L13.4356 8.25638C13.3097 8.82937 13.1087 9.38326 12.8382 9.90379L10.1639 7.24297C10.0169 7.09474 9.93427 6.89456 9.93426 6.68574C9.93426 6.47687 10.0168 6.2762 10.1639 6.12795C10.3118 5.98036 10.5121 5.89769 10.721 5.89765ZM2.82006 5.88826C3.0292 5.88826 3.23016 5.97082 3.37877 6.11801C3.45359 6.19111 3.51343 6.27853 3.55434 6.37481C3.59523 6.47106 3.61657 6.57453 3.61728 6.67911C3.61797 6.78372 3.59783 6.8877 3.5582 6.98451C3.51862 7.08117 3.4602 7.16897 3.3865 7.24297L0.746424 9.87894C0.476441 9.35693 0.277038 8.80127 0.154035 8.22656L2.2619 6.11801C2.41046 5.97092 2.61104 5.88832 2.82006 5.88826ZM5.60092 7.81567L5.63571 8.10672H5.2647V9.00526H5.81955V8.61701H7.75296V9.00526H8.30505L8.29511 8.10672H7.92466L7.96165 7.81567H7.41453L7.37975 8.10672H7.06119V7.81567H6.50911V8.10672H6.19055L6.15577 7.81567H5.60092ZM1.97703 3.12859C2.18534 3.12865 2.38525 3.21141 2.53298 3.35833H2.54512C2.61943 3.43275 2.6782 3.52107 2.71793 3.61845C2.75765 3.71588 2.77808 3.82029 2.777 3.92551C2.77405 4.13193 2.6906 4.32915 2.54512 4.47557L2.74321e-06 7.01931V6.78514C-0.000756577 5.94064 0.156125 5.10339 0.462652 4.31651L1.42052 3.35833C1.5683 3.21136 1.76864 3.12859 1.97703 3.12859ZM11.6021 3.13632C11.8066 3.12877 12.006 3.20004 12.1592 3.33569V3.3379L13.09 4.26902C13.4097 5.06929 13.5734 5.92335 13.5725 6.78514V6.99666L11.0495 4.47557C10.9099 4.32603 10.8332 4.12843 10.8353 3.92385C10.8374 3.71923 10.9184 3.52319 11.0611 3.37656C11.2038 3.22991 11.3976 3.14389 11.6021 3.13632ZM6.50635 2.61388V3.3981H5.2625V3.95036H6.50635C6.48853 4.26813 6.34957 4.56688 6.11823 4.78539C5.88687 5.00386 5.58065 5.12549 5.2625 5.12503V5.68006C5.56682 5.6798 5.86611 5.6022 6.13203 5.45418C6.39798 5.30614 6.62174 5.09258 6.78239 4.83399C6.94379 5.09249 7.16862 5.30562 7.43496 5.45363C7.70119 5.60155 8.0005 5.67951 8.30505 5.68006V5.12503C7.98691 5.12548 7.68066 5.00385 7.44931 4.78539C7.21799 4.56689 7.07901 4.26812 7.06119 3.95036H8.30505V3.3981H7.06119V2.61388H6.50635Z" fill="var(--fill-0, #00D0FF)"/>
</svg>
