<svg preserveAspectRatio="none" width="100%" height="100%" overflow="visible" style="display: block;" viewBox="0 0 14.6667 14.6667" fill="none" xmlns="http://www.w3.org/2000/svg">
<path id="Union" d="M7.33333 0C11.3834 0 14.6667 3.28325 14.6667 7.33333C14.6667 11.3834 11.3834 14.6667 7.33333 14.6667C3.28325 14.6667 0 11.3834 0 7.33333C0 3.28325 3.28325 0 7.33333 0ZM7.33333 1.33333C4.01962 1.33333 1.33333 4.01962 1.33333 7.33333C1.33333 10.647 4.01962 13.3333 7.33333 13.3333C10.647 13.3333 13.3333 10.647 13.3333 7.33333C13.3333 4.01962 10.647 1.33333 7.33333 1.33333ZM7.33333 9.66667C7.70152 9.66667 8 9.96514 8 10.3333C8 10.7015 7.70152 11 7.33333 11C6.96514 11 6.66667 10.7015 6.66667 10.3333C6.66667 9.96514 6.96514 9.66667 7.33333 9.66667ZM7.33333 3.66667C8.622 3.66667 9.66667 4.71134 9.66667 6C9.66667 6.96732 9.07802 7.79594 8.24219 8.14974C8.14581 8.19057 8.07168 8.24516 8.02995 8.29232C8.00743 8.3178 8.00075 8.33238 7.99935 8.33724C7.99725 8.70363 7.70022 9 7.33333 9C6.96514 9 6.66667 8.70152 6.66667 8.33333C6.66667 7.56498 7.28767 7.10602 7.72266 6.92188C8.08277 6.76945 8.33333 6.41307 8.33333 6C8.33333 5.44772 7.88562 5 7.33333 5C6.78105 5 6.33333 5.44772 6.33333 6C6.33333 6.36819 6.03486 6.66667 5.66667 6.66667C5.29848 6.66667 5 6.36819 5 6C5 4.71134 6.04467 3.66667 7.33333 3.66667Z" fill="var(--fill-0, #A65757)"/>
</svg>
