<svg preserveAspectRatio="none" width="100%" height="100%" overflow="visible" style="display: block;" viewBox="0 0 10.4454 9.11147" fill="none" xmlns="http://www.w3.org/2000/svg">
<path id="Union" d="M5.23249 0C5.9839 2.19059e-05 6.72648 0.141404 7.40961 0.414494C8.0928 0.687609 8.70042 1.08612 9.19116 1.58272C9.10075 1.56442 9.00823 1.55474 8.91541 1.55417C8.75338 1.55391 8.59273 1.58147 8.44294 1.63536C8.29317 1.68925 8.15698 1.76838 8.04227 1.86819L8.01168 1.88487C7.89648 1.98431 7.80514 2.1029 7.74272 2.23338C7.6803 2.36387 7.64797 2.50388 7.64797 2.64528C7.64797 2.78668 7.6803 2.92668 7.74272 3.05717C7.80514 3.18766 7.89647 3.30624 8.01168 3.40568L8.04057 3.43237C7.78696 3.46878 7.55238 3.57308 7.3701 3.73119C7.25554 3.8311 7.16486 3.94988 7.10284 4.08043C7.04084 4.211 7.00895 4.351 7.00894 4.49233C7.00894 4.63367 7.04084 4.77366 7.10284 4.90423C7.16485 5.0348 7.25554 5.15356 7.3701 5.25348L7.72658 5.56268C7.4693 5.59778 7.23126 5.70301 7.04676 5.86335C6.81598 6.06505 6.68608 6.33838 6.68603 6.62338C6.68603 6.90845 6.81594 7.18204 7.04676 7.38378L8.14594 8.33957C7.28014 8.84449 6.26153 9.11322 5.22017 9.11146C4.17876 9.10968 3.16134 8.83746 2.29779 8.32956L3.35491 7.3671C3.58571 7.16536 3.71522 6.89176 3.71522 6.6067C3.71517 6.32171 3.58564 6.04837 3.35491 5.84667C3.17083 5.68671 2.93337 5.58154 2.67679 5.54599L3.03327 5.23679C3.26418 5.03477 3.39358 4.76097 3.39358 4.47565C3.39356 4.19032 3.26419 3.91652 3.03327 3.71451C2.85198 3.55617 2.61807 3.4518 2.36492 3.41569L2.39339 3.38899C2.50814 3.28932 2.59936 3.17058 2.6615 3.04012C2.7236 2.90968 2.75582 2.76984 2.75582 2.62859C2.75582 2.48735 2.7236 2.3475 2.6615 2.21706C2.59936 2.0866 2.50814 1.96786 2.39339 1.86819C2.24779 1.74426 2.06941 1.65327 1.87418 1.60348C1.67891 1.5537 1.47259 1.54669 1.27339 1.58272C1.76412 1.08613 2.37177 0.687609 3.05494 0.414494C3.73813 0.14138 4.48101 0 5.23249 0ZM7.92542 6.09878C8.00514 6.09878 8.08423 6.11249 8.15784 6.13919C8.23139 6.16589 8.29837 6.20484 8.35456 6.25412L9.47074 7.21658C9.23207 7.50626 8.95515 7.77058 8.64561 8.00367L7.49671 7.00117C7.44026 6.95226 7.39514 6.89398 7.36457 6.82989C7.33405 6.76586 7.31828 6.69718 7.31826 6.62783C7.31826 6.55841 7.334 6.48949 7.36457 6.4254C7.39514 6.36133 7.44027 6.30303 7.49671 6.25412C7.55286 6.20493 7.61955 6.16585 7.69301 6.13919C7.76662 6.11249 7.84571 6.09878 7.92542 6.09878ZM2.50089 6.09729C2.66155 6.09835 2.81533 6.15409 2.9296 6.25264C2.98705 6.30099 3.03315 6.35884 3.06471 6.42281C3.09626 6.48676 3.11281 6.55561 3.11358 6.62524C3.11377 6.69455 3.09826 6.76332 3.06769 6.82729C3.03712 6.89124 2.9921 6.9492 2.93555 6.99784L1.796 8.00034C1.48692 7.76607 1.21046 7.50064 0.972569 7.2099L2.07175 6.25264C2.18559 6.15343 2.34 6.09761 2.50089 6.09729ZM4.59558 5.97198V6.30602H5.32894L5.17003 6.47323H4.05173V6.80727H5.23504V6.83248C5.24189 6.84885 5.244 6.86642 5.24099 6.88365C5.23797 6.90087 5.23018 6.91727 5.21804 6.9311C5.20645 6.94522 5.19103 6.95673 5.17343 6.96484C5.15584 6.97293 5.13637 6.97743 5.11649 6.97782H4.62617V7.31186H5.11819C5.19145 7.31176 5.264 7.29799 5.33064 7.27145C5.39726 7.24489 5.45678 7.20623 5.50484 7.158C5.55291 7.10973 5.58851 7.05284 5.60936 6.99153C5.6302 6.93025 5.63603 6.86576 5.62593 6.80245H6.39158L6.38606 6.47323H5.68882L5.83625 6.30602V5.97198H4.59558ZM8.25089 3.9592C8.41172 3.9592 8.56622 4.01465 8.68002 4.1138L10.3401 5.54266C10.2432 5.92731 10.0885 6.29915 9.88033 6.64859L7.82218 4.86234C7.70902 4.76283 7.64544 4.62844 7.64542 4.48826C7.64542 4.34804 7.70899 4.21333 7.82218 4.1138C7.93595 4.01472 8.09015 3.95923 8.25089 3.9592ZM2.17033 3.9529C2.33127 3.9529 2.48594 4.00832 2.60031 4.10713C2.65789 4.1562 2.70394 4.21489 2.73543 4.27952C2.76689 4.34414 2.78332 4.4136 2.78386 4.48381C2.7844 4.55404 2.7689 4.62383 2.7384 4.68883C2.70793 4.75372 2.66297 4.81266 2.60626 4.86234L0.57445 6.63191C0.36667 6.28148 0.213209 5.90845 0.118546 5.52264L1.74077 4.10713C1.85509 4.00838 2.00946 3.95293 2.17033 3.9529ZM4.31048 5.2468L4.33725 5.44219H4.05173V6.04539H4.47874V5.78476H5.96669V6.04539H6.39158L6.38393 5.44219H6.09883L6.1273 5.2468H5.70624L5.67947 5.44219H5.43431V5.2468H5.00942V5.44219H4.76426L4.73749 5.2468H4.31048ZM1.52152 2.10028C1.68184 2.10032 1.83569 2.15588 1.94938 2.25451H1.95873C2.01592 2.30446 2.06115 2.36376 2.09172 2.42913C2.1223 2.49454 2.13801 2.56463 2.13718 2.63527C2.13491 2.77384 2.07069 2.90623 1.95873 3.00453L2.11118e-06 4.71219V4.55499C-0.000582263 3.98806 0.120154 3.426 0.356058 2.89775L1.09324 2.25451C1.20697 2.15584 1.36115 2.10028 1.52152 2.10028ZM8.92901 2.10547C9.08635 2.1004 9.23983 2.14824 9.35772 2.23931V2.24079L10.0741 2.86587C10.3201 3.4031 10.4461 3.97645 10.4454 4.55499V4.69699L8.5037 3.00453C8.39627 2.90414 8.33724 2.77149 8.33884 2.63415C8.34048 2.49679 8.40281 2.36518 8.51262 2.26674C8.62249 2.16829 8.77163 2.11055 8.92901 2.10547ZM5.0073 1.75474V2.2812H4.05003V2.65195H5.0073C4.99359 2.86528 4.88664 3.06583 4.7086 3.21252C4.53055 3.35918 4.29488 3.44083 4.05003 3.44053V3.81313C4.28423 3.81295 4.51457 3.76086 4.71922 3.66149C4.9239 3.56211 5.09611 3.41874 5.21974 3.24514C5.34396 3.41868 5.51698 3.56176 5.72196 3.66112C5.92685 3.76042 6.1572 3.81276 6.39158 3.81313V3.44053C6.14674 3.44082 5.91105 3.35918 5.73301 3.21252C5.55498 3.06583 5.44802 2.86527 5.43431 2.65195H6.39158V2.2812H5.43431V1.75474H5.0073Z" fill="var(--fill-0, white)" fill-opacity="0.73"/>
</svg>
