<svg preserveAspectRatio="none" width="100%" height="100%" overflow="visible" style="display: block;" viewBox="0 0 17.2393 17.2393" fill="none" xmlns="http://www.w3.org/2000/svg">
<path id="Union" d="M8.63578 0C9.87592 4.14469e-05 11.1015 0.267542 12.2289 0.784241C13.3565 1.30099 14.3593 2.05499 15.1692 2.99457C15.02 2.95995 14.8673 2.94164 14.7141 2.94055C14.4467 2.94005 14.1816 2.99221 13.9343 3.09418C13.6872 3.19614 13.4624 3.34585 13.2731 3.5347L13.2226 3.56626C13.0325 3.75439 12.8817 3.97878 12.7787 4.22564C12.6757 4.47253 12.6223 4.73744 12.6223 5.00497C12.6223 5.27252 12.6757 5.53741 12.7787 5.78431C12.8817 6.03118 13.0325 6.25555 13.2226 6.44369L13.2703 6.49419C12.8517 6.56309 12.4646 6.76043 12.1637 7.05957C11.9746 7.2486 11.825 7.47334 11.7226 7.72036C11.6203 7.96739 11.5677 8.23228 11.5677 8.49969C11.5677 8.76711 11.6203 9.03196 11.7226 9.27902C11.825 9.52605 11.9747 9.75076 12.1637 9.9398L12.7521 10.5248C12.3274 10.5912 11.9346 10.7903 11.6301 11.0937C11.2492 11.4753 11.0348 11.9925 11.0347 12.5317C11.0347 13.0711 11.2491 13.5887 11.6301 13.9704L13.4442 15.7788C12.0153 16.7342 10.3341 17.2426 8.61544 17.2393C6.89669 17.2359 5.21752 16.7208 3.79231 15.7599L5.53699 13.9389C5.91791 13.5572 6.13165 13.0395 6.13165 12.5002C6.13157 11.961 5.9178 11.4438 5.53699 11.0622C5.23319 10.7595 4.84127 10.5605 4.41782 10.4933L5.00616 9.90824C5.38724 9.526 5.60081 9.00796 5.60081 8.46812C5.60079 7.92827 5.38727 7.41023 5.00616 7.02801C4.70694 6.72843 4.3209 6.53095 3.90311 6.46262L3.95009 6.41212C4.13947 6.22354 4.29003 5.99888 4.39257 5.75204C4.49507 5.50524 4.54824 5.24066 4.54825 4.97341C4.54825 4.70616 4.49507 4.44157 4.39257 4.19478C4.29003 3.94794 4.13947 3.72328 3.95009 3.5347C3.70978 3.30022 3.41539 3.12807 3.09317 3.03385C2.7709 2.93966 2.43038 2.92639 2.10162 2.99457C2.91153 2.05501 3.91441 1.30099 5.04192 0.784241C6.16947 0.267496 7.39553 0 8.63578 0ZM13.0802 11.5391C13.2118 11.5391 13.3423 11.5651 13.4638 11.6156C13.5852 11.6661 13.6957 11.7398 13.7885 11.8331L15.6306 13.6541C15.2367 14.2022 14.7797 14.7023 14.2688 15.1433L12.3727 13.2465C12.2795 13.154 12.2051 13.0437 12.1546 12.9224C12.1042 12.8013 12.0782 12.6713 12.0782 12.5401C12.0782 12.4088 12.1041 12.2784 12.1546 12.1571C12.2051 12.0359 12.2795 11.9256 12.3727 11.8331C12.4653 11.74 12.5754 11.6661 12.6967 11.6156C12.8181 11.5651 12.9487 11.5392 13.0802 11.5391ZM4.1275 11.5363C4.39266 11.5383 4.64646 11.6438 4.83505 11.8303C4.92987 11.9217 5.00596 12.0312 5.05805 12.1522C5.11011 12.2732 5.13743 12.4035 5.13869 12.5352C5.13901 12.6664 5.11342 12.7965 5.06296 12.9175C5.0125 13.0385 4.93821 13.1482 4.84487 13.2402L2.96415 15.137C2.45404 14.6937 1.99776 14.1915 1.60514 13.6414L3.41925 11.8303C3.60712 11.6426 3.86197 11.5369 4.1275 11.5363ZM7.58462 11.2992V11.9313H8.79496L8.53269 12.2476H6.68703V12.8797H8.63998V12.9274C8.6513 12.9583 8.65477 12.9916 8.6498 13.0242C8.64482 13.0567 8.63197 13.0878 8.61193 13.1139C8.59281 13.1407 8.56735 13.1624 8.5383 13.1778C8.50928 13.1931 8.47714 13.2016 8.44434 13.2023H7.63511V13.8344H8.44714C8.56805 13.8342 8.68777 13.8081 8.79776 13.7579C8.90771 13.7076 9.00596 13.6345 9.08527 13.5432C9.1646 13.4519 9.22336 13.3443 9.25778 13.2283C9.29216 13.1123 9.30178 12.9903 9.28512 12.8705H10.5488L10.5396 12.2476H9.38891L9.63224 11.9313V11.2992H7.58462ZM13.6174 7.49098C13.8828 7.49098 14.1378 7.59588 14.3256 7.78349L17.0654 10.4869C16.9055 11.2147 16.6502 11.9183 16.3066 12.5794L12.9098 9.19975C12.7231 9.01147 12.6181 8.75721 12.6181 8.49197C12.6181 8.22668 12.723 7.97179 12.9098 7.78349C13.0976 7.59603 13.3521 7.49103 13.6174 7.49098ZM3.58194 7.47905C3.84757 7.47905 4.10283 7.58392 4.29159 7.77086C4.38662 7.86371 4.46263 7.97475 4.51459 8.09704C4.56652 8.2193 4.59364 8.35072 4.59453 8.48355C4.59541 8.61643 4.56983 8.74849 4.5195 8.87147C4.46921 8.99423 4.39501 9.10576 4.30141 9.19975L0.94808 12.5479C0.605158 11.8848 0.351884 11.179 0.195649 10.4491L2.87298 7.77086C3.06167 7.58403 3.31644 7.47912 3.58194 7.47905ZM7.11408 9.92718L7.15826 10.2968H6.68703V11.4381H7.39178V10.945H9.84752V11.4381H10.5488L10.5361 10.2968H10.0656L10.1126 9.92718H9.41766L9.37348 10.2968H8.96886V9.92718H8.26762V10.2968H7.86301L7.81883 9.92718H7.11408ZM2.51114 3.97382C2.77573 3.97389 3.02965 4.07901 3.21729 4.26563H3.23272C3.3271 4.36015 3.40175 4.47233 3.45221 4.59602C3.50267 4.71977 3.52861 4.85239 3.52724 4.98603C3.52349 5.24822 3.4175 5.49872 3.23272 5.6847L3.48432e-06 8.91566V8.61824C-0.000960976 7.54557 0.198305 6.48213 0.587643 5.48267L1.80429 4.26563C1.992 4.07895 2.24646 3.97382 2.51114 3.97382ZM14.7366 3.98364C14.9962 3.97404 15.2495 4.06457 15.4441 4.23687V4.23967L16.6264 5.42235C17.0325 6.43882 17.2404 7.52361 17.2393 8.61824V8.8869L14.0346 5.6847C13.8573 5.49476 13.7599 5.24377 13.7625 4.98393C13.7653 4.72403 13.8681 4.47503 14.0493 4.28878C14.2307 4.10251 14.4768 3.99325 14.7366 3.98364ZM8.26412 3.32005V4.31613H6.68422V5.0176H8.26412C8.24149 5.42122 8.06498 5.80069 7.77115 6.07822C7.47728 6.35572 7.08834 6.51021 6.68422 6.50962V7.2146C7.07076 7.21427 7.45091 7.1157 7.78868 6.9277C8.12648 6.73966 8.41069 6.4684 8.61474 6.13995C8.81974 6.46829 9.10531 6.739 9.4436 6.927C9.78176 7.11488 10.1619 7.2139 10.5488 7.2146V6.50962C10.1447 6.51019 9.75568 6.3557 9.46184 6.07822C9.16802 5.80069 8.99149 5.42121 8.96886 5.0176H10.5488V4.31613H8.96886V3.32005H8.26412Z" fill="var(--fill-0, #00D0FF)"/>
</svg>
