<svg preserveAspectRatio="none" width="100%" height="100%" overflow="visible" style="display: block;" viewBox="0 0 284.611 155.314" fill="none" xmlns="http://www.w3.org/2000/svg">
<g id="Vector 1690" filter="url(#filter0_f_0_3435)">
<path d="M8.11102 33.3137C26.7777 34.4804 29.6107 -0.186253 73.6107 9.81361C45.6107 9.81361 46.6111 9.81361 50.6107 12.8136L97.6109 25.3137C62.1109 27.3137 48.6111 34.8138 46.6111 38.8138C88.3071 29.8138 178.111 66.3136 160.611 87.3136C128.715 84.2018 34.9762 100.696 26.6128 101.761C26.6423 101.809 26.6718 101.857 26.7014 101.906L276.611 140.814L166.111 136.814C201.944 140.981 245.415 142.314 269.415 144.314C189.537 144.314 110.596 144.314 85.237 137.506C104.047 143.084 117.771 146.353 122.415 147.314C100.582 144.647 55.7149 137.914 50.9149 132.314C48.5092 129.507 37.1351 118.922 26.7014 101.906L26.1107 101.814C26.2072 101.809 26.3757 101.791 26.6128 101.761C16.2633 84.8371 6.86753 61.5824 8.11102 33.3137Z" fill="url(#paint0_linear_0_3435)"/>
</g>
<defs>
<filter id="filter0_f_0_3435" x="2.94654e-08" y="-6.03697e-08" width="284.611" height="155.314" filterUnits="userSpaceOnUse" color-interpolation-filters="sRGB">
<feFlood flood-opacity="0" result="BackgroundImageFix"/>
<feBlend mode="normal" in="SourceGraphic" in2="BackgroundImageFix" result="shape"/>
<feGaussianBlur stdDeviation="4" result="effect1_foregroundBlur_0_3435"/>
</filter>
<linearGradient id="paint0_linear_0_3435" x1="159.013" y1="-45.186" x2="159.013" y2="147.314" gradientUnits="userSpaceOnUse">
<stop stop-color="white" stop-opacity="0.72"/>
<stop offset="1" stop-color="white" stop-opacity="0.1"/>
</linearGradient>
</defs>
</svg>
