<svg preserveAspectRatio="none" width="100%" height="100%" overflow="visible" style="display: block;" viewBox="0 0 263.5 145" fill="none" xmlns="http://www.w3.org/2000/svg">
<g id="Vector 1691" filter="url(#filter0_f_0_3461)">
<path d="M203.5 60.0945C200.3 16.9449 234.833 4.71916 252.5 4L259.5 141L4 136L104 122.122C101 120.864 92.1 118.346 80.5001 118.346C77.5 83.5 108.5 87.5 114 95.5C114 74 152 66.5669 164 99.4685C180.603 76.1436 191.087 91.1481 194.643 102.567C192.548 94.4379 195.243 82.7337 221.5 92.9961C211.1 87.8181 201.5 77 203.5 66.5669H236C235.333 65.8478 221.9 63.5465 203.5 60.0945Z" fill="var(--fill-0, white)" fill-opacity="0.44"/>
</g>
<defs>
<filter id="filter0_f_0_3461" x="0" y="0" width="263.5" height="145" filterUnits="userSpaceOnUse" color-interpolation-filters="sRGB">
<feFlood flood-opacity="0" result="BackgroundImageFix"/>
<feBlend mode="normal" in="SourceGraphic" in2="BackgroundImageFix" result="shape"/>
<feGaussianBlur stdDeviation="2" result="effect1_foregroundBlur_0_3461"/>
</filter>
</defs>
</svg>
